<svg aria-hidden="true" style="position: absolute; width: 0; height: 0; overflow: hidden;" version="1.1"
     xmlns="http://www.w3.org/2000/svg" xmlns:xlink="http://www.w3.org/1999/xlink">
    <defs>
        <symbol id="icon-error-color" viewBox="0 0 32 32">
            <path fill="#fed6cc" style="fill: var(--color1, #fed6cc)"
                  d="M29.333 16c0 7.364-5.97 13.333-13.333 13.333s-13.333-5.97-13.333-13.333c0-7.364 5.97-13.333 13.333-13.333s13.333 5.97 13.333 13.333z">
            </path>
            <path fill="#f30" style="fill: var(--color2, #f30)"
                  d="M19.749 21.62l-9.369-9.369c-0.512-0.512-0.512-1.344 0-1.856l0.015-0.015c0.512-0.512 1.344-0.512 1.856 0l9.369 9.369c0.512 0.512 0.512 1.344 0 1.856l-0.015 0.015c-0.512 0.512-1.344 0.512-1.856 0z">
            </path>
            <path fill="#f30" style="fill: var(--color2, #f30)"
                  d="M10.38 19.749l9.369-9.369c0.512-0.512 1.344-0.512 1.856 0l0.015 0.015c0.512 0.512 0.512 1.344 0 1.856l-9.369 9.369c-0.512 0.512-1.344 0.512-1.856 0l-0.015-0.015c-0.512-0.512-0.512-1.344 0-1.856z">
            </path>
        </symbol>
        <symbol id="icon-success-color" viewBox="0 0 32 32">
            <path fill="#94eaff" style="fill: var(--color3, #94eaff)"
                  d="M29.333 16c0 7.364-5.97 13.333-13.333 13.333s-13.333-5.97-13.333-13.333c0-7.364 5.97-13.333 13.333-13.333s13.333 5.97 13.333 13.333z">
            </path>
            <path fill="#0082a2" style="fill: var(--color4, #0082a2)"
                  d="M14.667 21.333c-0.341 0-0.683-0.131-0.943-0.391l-4-4c-0.521-0.521-0.521-1.364 0-1.885s1.364-0.521 1.885 0l3.057 3.057 5.724-5.724c0.521-0.521 1.364-0.521 1.885 0s0.521 1.364 0 1.885l-6.667 6.667c-0.26 0.26-0.601 0.391-0.943 0.391z">
            </path>
        </symbol>
        <symbol id="icon-arrow-outline" viewBox="0 0 32 32">
            <path
                  d="M28.991 7.986c-0.275 0.007-0.521 0.123-0.698 0.307l-0 0-12.293 12.293-12.293-12.293c-0.182-0.187-0.436-0.303-0.717-0.303v0c-0.552 0-1 0.448-1 1 0 0.281 0.116 0.535 0.303 0.717l13 13c0.181 0.181 0.431 0.293 0.707 0.293s0.526-0.112 0.707-0.293l13-13c0.19-0.182 0.308-0.438 0.308-0.722 0-0.552-0.448-1-1-1-0.008 0-0.017 0-0.025 0l0.001-0z">
            </path>
        </symbol>
        <symbol id="icon-back-outline" viewBox="0 0 32 32">
            <path
                  d="M14.314 5.991c-0.27 0.008-0.512 0.122-0.687 0.302l-9.334 9.334c-0.181 0.181-0.293 0.431-0.293 0.707s0.112 0.526 0.293 0.707l9.333 9.333c0.182 0.19 0.438 0.307 0.721 0.307 0.552 0 1-0.448 1-1 0-0.283-0.118-0.539-0.307-0.721l-0-0-7.626-7.626h19.586c0.004 0 0.009 0 0.014 0 0.552 0 1-0.448 1-1s-0.448-1-1-1c-0.005 0-0.010 0-0.015 0h-19.585l7.626-7.626c0.187-0.182 0.302-0.436 0.302-0.716 0-0.552-0.448-1-1-1-0.010 0-0.020 0-0.030 0l0.001-0z">
            </path>
        </symbol>
        <symbol id="icon-camera-outline" viewBox="0 0 32 32">
            <path
                  d="M13.648 3.333c-1.066 0-2.055 0.568-2.591 1.488l-1.465 2.512h-2.592c-2.381 0-4.333 1.952-4.333 4.333v12.667c0 2.381 1.952 4.333 4.333 4.333h18c2.381 0 4.333-1.952 4.333-4.333v-12.667c0-2.381-1.952-4.333-4.333-4.333h-2.592l-1.465-2.512c-0.537-0.92-1.526-1.488-2.591-1.488h-4.703zM13.648 5.333h4.703c0.357 0 0.684 0.188 0.863 0.496l1.755 3.008c0.177 0.299 0.497 0.496 0.863 0.496h3.167c1.3 0 2.333 1.033 2.333 2.333v12.667c0 1.3-1.033 2.333-2.333 2.333h-18c-1.3 0-2.333-1.033-2.333-2.333v-12.667c0-1.3 1.033-2.333 2.333-2.333h3.167c0.366-0 0.687-0.197 0.861-0.491l0.003-0.005 1.755-3.008c0.179-0.308 0.506-0.496 0.863-0.496zM16 11.333c-3.302 0-6 2.698-6 6s2.698 6 6 6c3.302 0 6-2.698 6-6s-2.698-6-6-6zM16 13.333c2.221 0 4 1.779 4 4s-1.779 4-4 4c-2.221 0-4-1.779-4-4s1.779-4 4-4z">
            </path>
        </symbol>
        <symbol id="icon-cancel-outline" viewBox="0 0 32 32">
            <path
                  d="M26.324 4.652c-0.275 0.007-0.521 0.123-0.698 0.307l-0 0-9.626 9.626-9.626-9.626c-0.182-0.187-0.436-0.303-0.717-0.303v0c-0.552 0-1 0.448-1 1 0 0.281 0.116 0.535 0.303 0.717l9.627 9.627-9.626 9.626c-0.19 0.182-0.307 0.438-0.307 0.721 0 0.552 0.448 1 1 1 0.283 0 0.539-0.118 0.721-0.307l0-0 9.626-9.626 9.626 9.626c0.182 0.19 0.438 0.307 0.721 0.307 0.552 0 1-0.448 1-1 0-0.283-0.118-0.539-0.307-0.721l-0-0-9.626-9.626 9.626-9.626c0.19-0.182 0.308-0.438 0.308-0.722 0-0.552-0.448-1-1-1-0.008 0-0.017 0-0.025 0l0.001-0z">
            </path>
        </symbol>
        <symbol id="icon-contribution-outline" viewBox="0 0 32 32">
            <path
                  d="M12.333 2.667c-2.757 0-5 2.243-5 5 0 0.519 0.081 1.021 0.228 1.492 0.568-0.384 1.18-0.723 1.819-1.027-0.024-0.153-0.047-0.306-0.047-0.465 0-1.654 1.346-3 3-3 1.315 0 2.423 0.855 2.827 2.035 0.279-0.015 0.556-0.035 0.84-0.035 0.418 0 0.831 0.021 1.241 0.052-0.445-2.305-2.475-4.052-4.908-4.052zM23.664 5.333c0 0-3.565 0.092-5.514 2.872-0.7-0.105-1.405-0.206-2.15-0.206-4.907 0-9.246 2.401-11.076 5.932-0.54-0.17-0.924-0.662-0.924-1.266 0-1.133 0.78-1.439 0.78-1.439 0.338-0.165 0.566-0.506 0.566-0.901 0-0.552-0.448-1-1-1-0.003 0-0.005 0-0.008 0h0c-0.165 0.001-0.321 0.043-0.457 0.115l0.005-0.003c0 0-1.887 1.028-1.887 3.228 0 1.44 0.938 2.667 2.228 3.129-0.145 0.604-0.228 1.227-0.228 1.871 0 2.512 1.239 4.755 3.129 6.444l-0.271 0.727c-0.637 1.715 0.249 3.649 1.964 4.286 0.38 0.141 0.773 0.208 1.16 0.208 1.356 0 2.629-0.838 3.125-2.172l0.072-0.194c0.916 0.183 1.835 0.367 2.822 0.367 0.98 0 1.894-0.182 2.805-0.362l0.070 0.19c0.496 1.334 1.768 2.172 3.124 2.172 0.387 0 0.782-0.069 1.161-0.21 1.714-0.638 2.6-2.571 1.964-4.285l-0.267-0.719c0.711-0.633 1.318-1.34 1.807-2.119h1.668c0.909 0 1.667-0.758 1.667-1.667v-4c0.001-0.909-0.757-1.668-1.665-1.668h-0.983c-0.691-1.699-1.973-3.112-3.572-4.229l0.865-3.887c0.015-0.065 0.024-0.14 0.024-0.217 0-0.552-0.448-1-1-1-0.001 0-0.002 0-0.003 0h0zM22.365 7.581l-0.613 2.766 0.142-0.177c-0.137 0.17-0.219 0.388-0.219 0.625 0 0.361 0.191 0.677 0.478 0.853l0.004 0.002c1.802 1.089 3.069 2.613 3.579 4.306 0.128 0.415 0.508 0.711 0.957 0.711h1.306v3.335h-1.853c-0 0-0.001 0-0.001 0-0.38 0-0.71 0.212-0.879 0.523l-0.003 0.005c-0.501 0.94-1.241 1.804-2.184 2.531-0.238 0.185-0.389 0.471-0.389 0.792 0 0.125 0.023 0.244 0.065 0.354l-0.002-0.007 0.496 1.335c0.26 0.701-0.083 1.452-0.784 1.714-0.156 0.058-0.313 0.085-0.466 0.085-0.539 0-1.046-0.323-1.249-0.869l-0.345-0.928c-0.146-0.384-0.51-0.651-0.937-0.651-0.090 0-0.178 0.012-0.261 0.034l0.007-0.002c-1.012 0.266-2.090 0.415-3.214 0.415-1.129 0-2.211-0.152-3.228-0.421-0.077-0.021-0.165-0.033-0.256-0.033-0.427 0-0.792 0.268-0.935 0.645l-0.002 0.007-0.346 0.932c-0.203 0.545-0.712 0.869-1.25 0.869-0.153 0-0.308-0.026-0.464-0.083h-0.001c-0.7-0.261-1.044-1.014-0.784-1.715l0.5-1.344c0.040-0.104 0.063-0.223 0.063-0.348 0-0.321-0.151-0.606-0.386-0.789l-0.002-0.002c-1.836-1.422-2.908-3.317-2.908-5.384 0-0.762 0.152-1.507 0.435-2.214 0.013-0.024 0.028-0.055 0.041-0.086l0.002-0.007c1.273-3.040 4.981-5.361 9.522-5.361 0.811 0 1.601 0.084 2.367 0.228 0.055 0.011 0.119 0.017 0.183 0.017 0.387 0 0.724-0.22 0.89-0.543l0.003-0.006c0.72-1.407 1.928-1.885 2.922-2.116zM22.667 15.333c-0.736 0-1.333 0.597-1.333 1.333s0.597 1.333 1.333 1.333v0c0.736 0 1.333-0.597 1.333-1.333s-0.597-1.333-1.333-1.333v0z">
            </path>
        </symbol>
        <symbol id="icon-copy-outline" viewBox="0 0 32 32">
            <path
                  d="M12.333 3.333c-2.013 0-3.667 1.653-3.667 3.667v14.667c0 2.013 1.653 3.667 3.667 3.667h10.667c2.013 0 3.667-1.653 3.667-3.667v-14.667c0-2.013-1.653-3.667-3.667-3.667h-10.667zM12.333 5.333h10.667c0.932 0 1.667 0.735 1.667 1.667v14.667c0 0.932-0.735 1.667-1.667 1.667h-10.667c-0.932 0-1.667-0.735-1.667-1.667v-14.667c0-0.932 0.735-1.667 1.667-1.667zM7.333 6.667l-0.813 0.542c-0.742 0.495-1.188 1.327-1.188 2.219v12.906c0 3.498 2.835 6.333 6.333 6.333h8.906c0.892 0 1.725-0.445 2.219-1.188l0.542-0.813h-11.667c-2.393 0-4.333-1.94-4.333-4.333v-15.667z">
            </path>
        </symbol>
        <symbol id="icon-credit-outline" viewBox="0 0 32 32">
            <path
                  d="M28 12.333c0-2.013-1.653-3.667-3.667-3.667h-4c-0.004-0-0.009-0-0.014-0-0.552 0-1 0.448-1 1s0.448 1 1 1c0.005 0 0.010-0 0.015-0h3.999c0.932 0 1.667 0.735 1.667 1.667v12c0 0.932-0.735 1.667-1.667 1.667h-16.667c-0.932 0-1.667-0.735-1.667-1.667v-12c0-0.932 0.735-1.667 1.667-1.667h3.987c0.004 0 0.009 0 0.014 0 0.552 0 1-0.448 1-1s-0.448-1-1-1c-0.005 0-0.010 0-0.015 0h-3.986c-2.013 0-3.667 1.653-3.667 3.667v12c0 2.013 1.653 3.667 3.667 3.667h16.667c2.013 0 3.667-1.653 3.667-3.667v-12zM20.997 16.323c-0-0.552-0.448-1-1-1-0.281 0-0.535 0.116-0.717 0.303l-2.292 2.292 0.012-12.917c0-0.005 0-0.010 0-0.015 0-0.552-0.448-1-1-1s-1 0.448-1 1c0 0.005 0 0.009 0 0.013l-0.012 12.921-2.294-2.294c-0.182-0.19-0.438-0.307-0.721-0.307-0.552 0-1 0.448-1 1 0 0.283 0.118 0.539 0.307 0.721l0 0 4 4c0.181 0.181 0.431 0.293 0.707 0.293s0.526-0.112 0.707-0.293l4-4c0.187-0.182 0.303-0.436 0.303-0.717v0z">
            </path>
        </symbol>
        <symbol id="icon-dashboard-outline" viewBox="0 0 32 32">
            <path
                  d="M7 4c-1.645 0-3 1.355-3 3v2c0 1.645 1.355 3 3 3h5.333c1.645 0 3-1.355 3-3v-2c0-1.645-1.355-3-3-3h-5.333zM19.667 4c-1.645 0-3 1.355-3 3v8.667c0 1.645 1.355 3 3 3h5.333c1.645 0 3-1.355 3-3v-8.667c0-1.645-1.355-3-3-3h-5.333zM7 6h5.333c0.564 0 1 0.436 1 1v2c0 0.564-0.436 1-1 1h-5.333c-0.564 0-1-0.436-1-1v-2c0-0.564 0.436-1 1-1zM19.667 6h5.333c0.564 0 1 0.436 1 1v8.667c0 0.564-0.436 1-1 1h-5.333c-0.564 0-1-0.436-1-1v-8.667c0-0.564 0.436-1 1-1zM7 13.333c-1.645 0-3 1.355-3 3v8.667c0 1.645 1.355 3 3 3h5.333c1.645 0 3-1.355 3-3v-8.667c0-1.645-1.355-3-3-3h-5.333zM7 15.333h5.333c0.564 0 1 0.436 1 1v8.667c0 0.564-0.436 1-1 1h-5.333c-0.564 0-1-0.436-1-1v-8.667c0-0.564 0.436-1 1-1zM19.667 20c-1.645 0-3 1.355-3 3v2c0 1.645 1.355 3 3 3h5.333c1.645 0 3-1.355 3-3v-2c0-1.645-1.355-3-3-3h-5.333zM19.667 22h5.333c0.564 0 1 0.436 1 1v2c0 0.564-0.436 1-1 1h-5.333c-0.564 0-1-0.436-1-1v-2c0-0.564 0.436-1 1-1z">
            </path>
        </symbol>
        <symbol id="icon-debit-outline" viewBox="0 0 32 32">
            <path
                  d="M4 24.333c0 2.013 1.653 3.667 3.667 3.667h16.667c2.013 0 3.667-1.653 3.667-3.667v-12c0-2.013-1.653-3.667-3.667-3.667-0.004-0-0.009-0-0.014-0-0.552 0-1 0.448-1 1s0.448 1 1 1c0.005 0 0.010-0 0.015-0h-0.001c0.932 0 1.667 0.735 1.667 1.667v12c0 0.932-0.735 1.667-1.667 1.667h-16.667c-0.932 0-1.667-0.735-1.667-1.667v-12c0-0.932 0.735-1.667 1.667-1.667 0.004 0 0.009 0 0.014 0 0.552 0 1-0.448 1-1s-0.448-1-1-1c-0.005 0-0.010 0-0.015 0h0.001c-2.013 0-3.667 1.653-3.667 3.667v12zM10.323 9.677c0 0.552 0.448 1 1 1 0.281 0 0.535-0.116 0.717-0.303l2.96-2.96v14.253c-0 0.004-0 0.009-0 0.014 0 0.552 0.448 1 1 1s1-0.448 1-1c0-0.005-0-0.010-0-0.015v-14.252l2.96 2.96c0.182 0.19 0.438 0.307 0.721 0.307 0.552 0 1-0.448 1-1 0-0.283-0.118-0.539-0.307-0.721l-0-0-4.667-4.667c-0.181-0.181-0.431-0.293-0.707-0.293s-0.526 0.112-0.707 0.293l-4.667 4.667c-0.187 0.182-0.303 0.436-0.303 0.717v0z">
            </path>
        </symbol>
        <symbol id="icon-download-outline" viewBox="0 0 32 32">
            <path
                  d="M15.984 3.986c-0.546 0.009-0.984 0.453-0.984 1 0 0.005 0 0.010 0 0.015v-0.001 14.253l-2.293-2.293c-0.182-0.187-0.436-0.303-0.717-0.303v0c-0.552 0-1 0.448-1 1 0 0.281 0.116 0.535 0.303 0.717l4 4c0.181 0.181 0.431 0.293 0.707 0.293s0.526-0.112 0.707-0.293l4-4c0.19-0.182 0.307-0.438 0.307-0.721 0-0.552-0.448-1-1-1-0.283 0-0.539 0.118-0.721 0.307l-0 0-2.293 2.293v-14.253c0-0.004 0-0.009 0-0.014 0-0.552-0.448-1-1-1-0.005 0-0.011 0-0.016 0h0.001zM4.984 20.652c-0.546 0.009-0.984 0.453-0.984 1 0 0.005 0 0.010 0 0.015v-0.001 2.667c0 2.013 1.653 3.667 3.667 3.667h16.667c2.013 0 3.667-1.653 3.667-3.667v-2.667c0-0.004 0-0.009 0-0.014 0-0.552-0.448-1-1-1s-1 0.448-1 1c0 0.005 0 0.010 0 0.015v-0.001 2.667c0 0.932-0.735 1.667-1.667 1.667h-16.667c-0.932 0-1.667-0.735-1.667-1.667v-2.667c0-0.004 0-0.009 0-0.014 0-0.552-0.448-1-1-1-0.005 0-0.011 0-0.016 0h0.001z">
            </path>
        </symbol>
        <symbol id="icon-empty-outline" viewBox="0 0 32 32">
            <path
                  d="M16 2.667c-1.829 0-3.333 1.504-3.333 3.333v0.333c-0 0.004-0 0.009-0 0.014 0 0.552 0.448 1 1 1s1-0.448 1-1c0-0.005-0-0.010-0-0.015v0.001-0.333c0-0.748 0.585-1.333 1.333-1.333s1.333 0.585 1.333 1.333c0 0.833-0.234 0.908-0.818 1.408s-1.516 1.426-1.516 2.926c-0 0.004-0 0.009-0 0.014 0 0.552 0.448 1 1 1s1-0.448 1-1c0-0.005-0-0.010-0-0.015v0.001c0-0.833 0.234-0.908 0.818-1.408s1.516-1.426 1.516-2.926c0-1.829-1.504-3.333-3.333-3.333zM9.27 10.667c-0.889 0-1.735 0.396-2.305 1.079l-2.27 2.724c-0 0-0 0-0.001 0s-0 0-0.001 0h0c-0.448 0.539-0.694 1.219-0.694 1.921v0.445c-0.008 0.049-0.013 0.105-0.013 0.162s0.005 0.113 0.014 0.168l-0.001-0.006v7.84c0 2.013 1.653 3.667 3.667 3.667h16.667c2.013 0 3.667-1.653 3.667-3.667v-7.836c0.008-0.049 0.013-0.105 0.013-0.162s-0.005-0.113-0.014-0.168l0.001 0.006v-0.449c0-0.702-0.246-1.381-0.695-1.921l-2.27-2.724c-0.57-0.684-1.415-1.079-2.305-1.079h-4.064v2h4.064c0.297 0 0.578 0.131 0.768 0.359l2.27 2.724c0.062 0.075 0.105 0.162 0.143 0.25h-19.823c0.038-0.088 0.081-0.175 0.143-0.25v-0.001l2.27-2.723c0.19-0.228 0.471-0.359 0.768-0.359h4.064v-2h-4.064zM16 12.667c-0.552 0-1 0.448-1 1s0.448 1 1 1v0c0.552 0 1-0.448 1-1s-0.448-1-1-1v0zM6 18h20v7c0 0.932-0.735 1.667-1.667 1.667h-16.667c-0.932 0-1.667-0.735-1.667-1.667v-7zM13.667 20c-0.004-0-0.009-0-0.014-0-0.552 0-1 0.448-1 1s0.448 1 1 1c0.005 0 0.010-0 0.015-0h4.666c0.004 0 0.009 0 0.014 0 0.552 0 1-0.448 1-1s-0.448-1-1-1c-0.005 0-0.010 0-0.015 0h-4.666z">
            </path>
        </symbol>
        <symbol id="icon-error-outline" viewBox="0 0 32 32">
            <path
                  d="M16 2.667c-7.352 0-13.333 5.981-13.333 13.333s5.981 13.333 13.333 13.333c7.352 0 13.333-5.981 13.333-13.333s-5.981-13.333-13.333-13.333zM16 4.667c6.271 0 11.333 5.062 11.333 11.333s-5.062 11.333-11.333 11.333c-6.271 0-11.333-5.062-11.333-11.333s5.062-11.333 11.333-11.333zM20.324 10.652c-0.275 0.007-0.521 0.123-0.698 0.307l-0 0-3.626 3.626-3.626-3.626c-0.182-0.187-0.436-0.303-0.717-0.303v0c-0.552 0-1 0.448-1 1 0 0.281 0.116 0.535 0.303 0.717l3.627 3.627-3.626 3.626c-0.19 0.182-0.307 0.438-0.307 0.721 0 0.552 0.448 1 1 1 0.283 0 0.539-0.118 0.721-0.307l0-0 3.626-3.626 3.626 3.626c0.182 0.19 0.438 0.307 0.721 0.307 0.552 0 1-0.448 1-1 0-0.283-0.118-0.539-0.307-0.721l-0-0-3.626-3.626 3.626-3.626c0.19-0.182 0.308-0.438 0.308-0.722 0-0.552-0.448-1-1-1-0.008 0-0.017 0-0.025 0l0.001-0z">
            </path>
        </symbol>
        <symbol id="icon-eye-close-outline" viewBox="0 0 32 32">
            <path
                  d="M28.314 2.658c-0.27 0.008-0.512 0.122-0.687 0.302l-24.667 24.667c-0.19 0.182-0.307 0.438-0.307 0.721 0 0.552 0.448 1 1 1 0.283 0 0.539-0.118 0.721-0.307v0l6.904-6.904c1.179 1.276 2.856 2.083 4.723 2.083 3.553 0 6.447-2.893 6.447-6.44 0-1.867-0.807-3.549-2.083-4.729l3.005-3.005c3.235 1.894 5.744 4.952 6.665 8.534 0.113 0.453 0.519 0.754 0.966 0.754 0.080 0 0.166-0.007 0.246-0.034 0.54-0.133 0.86-0.679 0.72-1.212-1.027-4.002-3.659-7.372-7.115-9.525l4.189-4.189c0.187-0.182 0.302-0.436 0.302-0.716 0-0.552-0.448-1-1-1-0.010 0-0.020 0-0.030 0h0.001zM15.993 6c-7.447 0-14.16 5.081-15.96 12.087-0.14 0.533 0.18 1.079 0.72 1.212 0.533 0.14 1.079-0.18 1.212-0.72 1.553-6.033 7.587-10.579 14.027-10.579 1.14 0 2.266 0.139 3.353 0.413l1.641-1.639c-1.593-0.507-3.273-0.773-4.994-0.773zM16 11.333c-3.553 0-6.44 2.893-6.44 6.447 0 0.133 0.006 0.273 0.013 0.406l2.527-2.526c0.407-0.753 1.033-1.38 1.786-1.786l2.526-2.527c-0.14-0.007-0.273-0.013-0.413-0.013zM18.951 14.464c0.914 0.814 1.496 1.995 1.496 3.316 0 2.447-1.993 4.44-4.447 4.44-1.316 0-2.496-0.582-3.31-1.496l6.26-6.26z">
            </path>
        </symbol>
        <symbol id="icon-eye-open-outline" viewBox="0 0 32 32">
            <path
                  d="M15.991 6c-7.546 0-14.196 5.231-15.96 12.085-0.020 0.075-0.031 0.16-0.031 0.249 0 0.552 0.448 1 1 1 0.464 0 0.854-0.316 0.967-0.744l0.002-0.007c1.52-5.906 7.409-10.582 14.022-10.582s12.521 4.678 14.040 10.582c0.115 0.436 0.505 0.751 0.969 0.751 0.552 0 1-0.448 1-1 0-0.088-0.011-0.174-0.033-0.256l0.002 0.007c-1.764-6.856-8.431-12.085-15.978-12.085zM16.001 11.333c-3.547 0-6.443 2.896-6.443 6.443s2.896 6.444 6.443 6.444c3.547 0 6.444-2.897 6.444-6.444s-2.897-6.443-6.444-6.443zM16.001 13.333c2.466 0 4.444 1.977 4.444 4.443s-1.978 4.444-4.444 4.444c-2.466 0-4.443-1.978-4.443-4.444s1.977-4.443 4.443-4.443z">
            </path>
        </symbol>
        <symbol id="icon-gp-outline" viewBox="0 0 32 32">
            <path
                  d="M16.033 1.333c-0.009-0-0.020-0-0.031-0-0.258 0-0.493 0.098-0.67 0.258l0.001-0.001c0 0-5.005 4.41-10.999 4.41-0.552 0-1 0.448-1 1v0 8.173c0 4.452 2.060 11.778 12.279 16.082 0.115 0.050 0.248 0.078 0.388 0.078s0.273-0.029 0.395-0.081l-0.006 0.003c10.219-4.304 12.279-11.63 12.279-16.082v-8.173c-0-0.552-0.448-1-1-1v0c-5.993 0-10.999-4.41-10.999-4.41-0.168-0.152-0.39-0.248-0.634-0.256l-0.002-0zM16 3.619c1.375 1.106 5.407 3.94 10.667 4.298v7.257c0 3.828-1.471 10.004-10.667 14.044-9.196-4.040-10.667-10.216-10.667-14.044v-7.256c5.259-0.359 9.291-3.192 10.667-4.298zM16 8c-1.25 0-2.314 0.505-2.997 1.273s-1.003 1.754-1.003 2.727c0 0.972 0.319 1.958 1.003 2.727s1.747 1.273 2.997 1.273c1.25 0 2.314-0.505 2.997-1.273s1.003-1.754 1.003-2.727c0-0.972-0.319-1.958-1.003-2.727s-1.747-1.273-2.997-1.273zM16 10c0.75 0 1.186 0.245 1.503 0.602s0.497 0.871 0.497 1.398c0 0.528-0.181 1.042-0.497 1.398s-0.753 0.602-1.503 0.602c-0.75 0-1.186-0.245-1.503-0.602s-0.497-0.871-0.497-1.398c0-0.528 0.181-1.042 0.497-1.398s0.753-0.602 1.503-0.602zM12.333 17.333c-1.279 0-2.333 1.055-2.333 2.333v0.667c0 0.305 0.036 0.597 0.102 0.869 0.046 0.187 0.14 0.348 0.268 0.475l0 0c1.445 1.429 3.439 2.323 5.63 2.323s4.186-0.893 5.63-2.323c0.128-0.127 0.222-0.288 0.267-0.468l0.001-0.007c0.066-0.272 0.102-0.563 0.102-0.869v-0.667c0-1.279-1.055-2.333-2.333-2.333h-7.333zM12.333 19.333h7.333c0.188 0 0.333 0.145 0.333 0.333v0.667c0 0.029-0.008 0.050-0.009 0.078-1.067 0.963-2.443 1.589-3.991 1.589s-2.924-0.625-3.991-1.589c-0.001-0.028-0.009-0.049-0.009-0.078v-0.667c0-0.188 0.145-0.333 0.333-0.333z">
            </path>
        </symbol>
        <symbol id="icon-guarantee-outline" viewBox="0 0 32 32">
            <path
                  d="M9.333 2.667c-1.473 0-2.667 1.194-2.667 2.667s1.194 2.667 2.667 2.667v0c1.473 0 2.667-1.194 2.667-2.667s-1.194-2.667-2.667-2.667v0zM22.667 2.667c-1.473 0-2.667 1.194-2.667 2.667s1.194 2.667 2.667 2.667v0c1.473 0 2.667-1.194 2.667-2.667s-1.194-2.667-2.667-2.667v0zM9 9.333c-2.013 0-3.667 1.653-3.667 3.667v7.667c-0 0.004-0 0.008-0 0.013 0 0.433 0.275 0.801 0.66 0.941l0.007 0.002v6.711c-0 0.004-0 0.009-0 0.014 0 0.552 0.448 1 1 1s1-0.448 1-1c0-0.005-0-0.010-0-0.015v0.001-7h2.667v7c-0 0.004-0 0.009-0 0.014 0 0.552 0.448 1 1 1s1-0.448 1-1c0-0.005-0-0.010-0-0.015v0.001-14.647l2.336 5.521c0.086 0.472 0.494 0.824 0.985 0.824 0.003 0 0.006 0 0.009-0h-0c0.005 0 0.011 0 0.017 0 0.49 0 0.898-0.353 0.984-0.818l0.001-0.006 2.336-5.521v14.647c-0 0.004-0 0.009-0 0.014 0 0.552 0.448 1 1 1s1-0.448 1-1c0-0.005-0-0.010-0-0.015v0.001-7h2.667v7c-0 0.004-0 0.009-0 0.014 0 0.552 0.448 1 1 1s1-0.448 1-1c0-0.005-0-0.010-0-0.015v0.001-6.711c0.392-0.141 0.667-0.51 0.667-0.943 0-0.005-0-0.009-0-0.014v0.001-7.667c0-2.013-1.653-3.667-3.667-3.667h-1.566c-1.47 0-2.803 0.884-3.376 2.238l-2.057 4.863-2.057-4.863c0-0 0-0 0-0.001s0-0 0-0.001v0c-0.573-1.353-1.906-2.237-3.376-2.237h-1.566z">
            </path>
        </symbol>
        <symbol id="icon-info-outline" viewBox="0 0 32 32">
            <path
                  d="M16 2.667c-7.352 0-13.333 5.981-13.333 13.333s5.981 13.333 13.333 13.333c7.352 0 13.333-5.981 13.333-13.333s-5.981-13.333-13.333-13.333zM16 4.667c6.271 0 11.333 5.062 11.333 11.333s-5.062 11.333-11.333 11.333c-6.271 0-11.333-5.062-11.333-11.333s5.062-11.333 11.333-11.333zM16 9.333c-0.736 0-1.333 0.597-1.333 1.333s0.597 1.333 1.333 1.333v0c0.736 0 1.333-0.597 1.333-1.333s-0.597-1.333-1.333-1.333v0zM15.984 13.986c-0.546 0.009-0.984 0.453-0.984 1 0 0.005 0 0.010 0 0.015v-0.001 7.333c-0 0.004-0 0.009-0 0.014 0 0.552 0.448 1 1 1s1-0.448 1-1c0-0.005-0-0.010-0-0.015v0.001-7.333c0-0.004 0-0.009 0-0.014 0-0.552-0.448-1-1-1-0.005 0-0.011 0-0.016 0h0.001z">
            </path>
        </symbol>
        <symbol id="icon-investment-outline" viewBox="0 0 32 32">
            <path
                  d="M25.329 2.667c-1.831 0-3.336 1.506-3.336 3.337v19.996c0 1.831 1.505 3.337 3.336 3.337s3.337-1.506 3.337-3.337v-19.996c0-1.831-1.506-3.337-3.337-3.337zM11.667 3.333c-0.004-0-0.009-0-0.014-0-0.552 0-1 0.448-1 1s0.448 1 1 1c0.005 0 0.010-0 0.015-0h2.119l-10.784 9.586c-0.218 0.185-0.355 0.458-0.355 0.764 0 0.552 0.448 1 1 1 0.264 0 0.504-0.102 0.683-0.27l-0.001 0.001 11.003-9.78v2.366c-0 0.004-0 0.009-0 0.014 0 0.552 0.448 1 1 1s1-0.448 1-1c0-0.005-0-0.010-0-0.015v0.001-4.667c-0-0.552-0.448-1-1-1h-4.667zM25.329 4.667c0.75 0 1.337 0.587 1.337 1.337v19.996c0 0.75-0.587 1.337-1.337 1.337s-1.336-0.587-1.336-1.337v-19.996c0-0.75 0.586-1.337 1.336-1.337zM16 12.667c-1.831 0-3.337 1.506-3.337 3.337v9.996c0 1.831 1.506 3.337 3.337 3.337s3.337-1.506 3.337-3.337v-9.996c0-1.831-1.506-3.337-3.337-3.337zM16 14.667c0.75 0 1.337 0.587 1.337 1.337v9.996c0 0.75-0.587 1.337-1.337 1.337s-1.337-0.587-1.337-1.337v-9.996c0-0.75 0.587-1.337 1.337-1.337zM6.663 18.663c-1.831 0-3.336 1.506-3.336 3.337v4c0 1.831 1.505 3.337 3.336 3.337s3.337-1.506 3.337-3.337v-4c0-1.831-1.506-3.337-3.337-3.337zM6.663 20.663c0.75 0 1.337 0.587 1.337 1.337v4c0 0.75-0.587 1.337-1.337 1.337s-1.336-0.587-1.336-1.337v-4c0-0.75 0.586-1.337 1.336-1.337z">
            </path>
        </symbol>
        <symbol id="icon-loan-outline" viewBox="0 0 32 32">
            <path
                  d="M18.939 3.311c-0.486 0.011-0.886 0.368-0.964 0.834l-0.001 0.006c-0.097 0.526-0.848 1.182-1.974 1.182s-1.877-0.657-1.974-1.182c-0.083-0.474-0.491-0.831-0.983-0.832h-0c-0.001 0-0.002 0-0.002 0-0.552 0-1 0.448-1 1 0 0.070 0.007 0.137 0.021 0.203l-0.001-0.006c0.321 1.733 2.046 2.818 3.94 2.818s3.619-1.085 3.94-2.818c0.013-0.061 0.021-0.132 0.021-0.205 0-0.552-0.448-1-1-1-0.008 0-0.016 0-0.023 0l0.001-0zM9.651 3.319c-0.546 0.009-0.984 0.453-0.984 1 0 0.005 0 0.010 0 0.015v-0.001 8c0 1.277 1.057 2.333 2.333 2.333h10c1.277 0 2.333-1.057 2.333-2.333v-8c0-0.004 0-0.009 0-0.014 0-0.552-0.448-1-1-1s-1 0.448-1 1c0 0.005 0 0.010 0 0.015v-0.001 6.333c-1.107 0-2 0.893-2 2h-6.667c0-1.107-0.893-2-2-2v-6.333c0-0.004 0-0.009 0-0.014 0-0.552-0.448-1-1-1-0.005 0-0.011 0-0.016 0h0.001zM16 8.667c-0.736 0-1.333 0.597-1.333 1.333s0.597 1.333 1.333 1.333v0c0.736 0 1.333-0.597 1.333-1.333s-0.597-1.333-1.333-1.333v0zM27.742 14.68c-0.747 0.006-1.456 0.303-2.086 0.771-0.676 0.502-2.711 2.021-4.471 3.336-0.382-1.219-1.514-2.12-2.852-2.12h-2.928c-1.874 0-2.748-0.152-3.499-0.311s-1.475-0.355-2.689-0.355c-2.59 0-4.543 1.662-5.822 3.194s-1.973 3.063-1.973 3.063c-0.057 0.122-0.090 0.265-0.090 0.415 0 0.552 0.448 1 1 1 0.402 0 0.749-0.237 0.908-0.579l0.003-0.006c0 0 0.599-1.306 1.688-2.609s2.576-2.477 4.286-2.477c1.014 0 1.454 0.137 2.273 0.311s1.925 0.355 3.914 0.355h2.928c0.564 0 1 0.436 1 1 0 0.313-0.137 0.583-0.353 0.764-0 0-0.027 0.021-0.027 0.021-0.021 0.016-0.039 0.032-0.057 0.048l0.001-0.001c-0 0-0.001 0.001-0.001 0.001v0c-0.159 0.106-0.352 0.167-0.563 0.167h-4.667c-0.004-0-0.009-0-0.014-0-0.552 0-1 0.448-1 1s0.448 1 1 1c0.005 0 0.010-0 0.015-0h4.666c0.627 0 1.21-0.199 1.694-0.534 0.001-0.001 0.002-0.001 0.003-0.001 0.046-0.025 0.085-0.051 0.122-0.079l-0.003 0.002c0 0 5.701-4.257 6.699-4.999 0-0 0-0 0-0.001s0-0 0-0.001v0c0.376-0.28 0.691-0.373 0.911-0.375s0.385 0.052 0.613 0.28c0.394 0.393 0.391 0.997 0.008 1.396-3.57 3.002-5.816 5.002-7.299 6.174-1.502 1.187-2.132 1.47-2.749 1.47-2.435 0-5.133-0.667-8-0.667-1.667 0-2.838 0.896-3.466 1.733s-0.837 1.691-0.837 1.691c-0.023 0.079-0.036 0.171-0.036 0.265 0 0.552 0.448 1 1 1 0.474 0 0.872-0.33 0.974-0.774l0.001-0.007c0 0 0.124-0.479 0.496-0.975s0.867-0.934 1.867-0.934c2.538 0 5.224 0.667 8 0.667 1.268 0 2.39-0.637 3.988-1.9 1.578-1.247 3.795-3.227 7.344-6.211 0.046-0.032 0.085-0.066 0.123-0.102l-0 0c0.005-0.005 0.006-0.011 0.010-0.016l0.003 0.003 0.035-0.036c0.095-0.099 0.17-0.217 0.218-0.349l0.002-0.007c0.831-1.168 0.777-2.793-0.268-3.837-0.552-0.553-1.299-0.872-2.046-0.866z">
            </path>
        </symbol>
        <symbol id="icon-logout-outline" viewBox="0 0 32 32">
            <path
                  d="M8.333 3.333c-2.013 0-3.667 1.653-3.667 3.667v18c0 2.013 1.653 3.667 3.667 3.667h8c2.013 0 3.667-1.653 3.667-3.667v-6.333h-2v6.333c0 0.932-0.735 1.667-1.667 1.667h-8c-0.932 0-1.667-0.735-1.667-1.667v-18c0-0.932 0.735-1.667 1.667-1.667h8c0.932 0 1.667 0.735 1.667 1.667v6.333h2v-6.333c0-2.013-1.653-3.667-3.667-3.667h-8zM22.99 10.323c-0.552 0-1 0.448-1 1 0 0.281 0.116 0.535 0.303 0.717l2.96 2.96h-14.919c-0.004-0-0.009-0-0.014-0-0.552 0-1 0.448-1 1s0.448 1 1 1c0.005 0 0.010-0 0.015-0h14.919l-2.96 2.96c-0.19 0.182-0.307 0.438-0.307 0.721 0 0.552 0.448 1 1 1 0.283 0 0.539-0.118 0.721-0.307l0-0 4.667-4.667c0.181-0.181 0.293-0.431 0.293-0.707s-0.112-0.526-0.293-0.707l-4.667-4.667c-0.182-0.187-0.436-0.303-0.717-0.303v0z">
            </path>
        </symbol>
        <symbol id="icon-notification-outline" viewBox="0 0 32 32">
            <path
                  d="M15.518 2.678c-5.389 0.254-9.518 4.884-9.518 10.242v4.845l-1.767 3.555c-0 0-0.004 0.007-0.007 0.013l-0.003 0.006c-0.711 1.512 0.44 3.327 2.111 3.327h5.665c0 2.197 1.803 4 4 4s4-1.803 4-4h5.664c1.671 0 2.823-1.815 2.112-3.327-0.006-0.013-0.009-0.019-0.012-0.025l0.003 0.006-1.767-3.555v-5.099c0-5.671-4.758-10.258-10.482-9.988zM15.612 4.676c4.613-0.217 8.388 3.432 8.388 7.991v5.333c0 0 0 0.001 0 0.001 0 0.162 0.038 0.315 0.107 0.45l-0.003-0.006 1.862 3.747c0.12 0.257-0.019 0.474-0.302 0.474h-19.329c-0.283 0-0.421-0.217-0.301-0.474 0 0 0-0.001 0-0.001l1.862-3.746c0.066-0.13 0.104-0.282 0.104-0.444 0-0 0-0.001 0-0.001v0-5.079c0-4.334 3.32-8.043 7.612-8.245zM14 24.667h4c0 1.116-0.884 2-2 2s-2-0.884-2-2z">
            </path>
        </symbol>
        <symbol id="icon-pay-outline" viewBox="0 0 32 32">
            <path
                  d="M26.117 6.677c1.125 0 1.421 0.851 1.088 2.848-0.381 2.284-1.477 9.846-2.352 14.553-0.335 1.801-0.938 2.578-1.816 2.578-0.483 0-1.048-0.235-1.697-0.663-0.88-0.581-5.323-3.519-6.287-4.209-0.88-0.629-2.094-1.385-0.571-2.875 0.542-0.531 4.093-3.922 6.86-6.561 0.295-0.282 0.048-0.712-0.28-0.712-0.075 0-0.154 0.023-0.231 0.074-3.729 2.473-8.901 5.906-9.559 6.353s-1.299 0.733-2.154 0.733c-0.437 0-0.929-0.075-1.509-0.241-1.295-0.372-2.56-0.815-3.053-0.985-1.897-0.651-1.447-1.494 0.395-2.305 7.385-3.249 16.942-7.21 18.261-7.758 1.285-0.534 2.24-0.831 2.905-0.831zM26.117 4.677v0c-0.912 0-2.010 0.294-3.671 0.983l-0.199 0.083c-7.090 2.944-13.519 5.676-18.101 7.692-0.716 0.315-2.894 1.273-2.809 3.277 0.036 0.865 0.512 2.043 2.571 2.749l0.152 0.052c0.575 0.198 1.771 0.611 2.998 0.963 0.747 0.215 1.421 0.319 2.061 0.319 1.109 0 1.969-0.317 2.641-0.685-0.003 0.112-0.001 0.225 0.008 0.338 0.121 1.541 1.313 2.387 2.025 2.892l0.099 0.071c1.051 0.752 5.809 3.895 6.348 4.251 1.014 0.669 1.929 0.994 2.799 0.994 1.368 0 3.135-0.731 3.782-4.212 0.614-3.302 1.323-7.915 1.841-11.283 0.221-1.437 0.402-2.616 0.517-3.307 0.233-1.396 0.339-2.977-0.632-4.123-0.408-0.48-1.16-1.053-2.43-1.053v0z">
            </path>
        </symbol>
        <symbol id="icon-repay-loan-outline" viewBox="0 0 32 32">
            <path
                  d="M17 4c-0.909 0-1.667 0.758-1.667 1.667v2.799l-5.854 1.801c-1.16 0.357-2.151 1.125-2.788 2.159l-4.543 7.384c-0.104 0.155-0.166 0.346-0.166 0.551 0 0.552 0.448 1 1 1 0.37 0 0.693-0.201 0.866-0.5l0.003-0.005 4.543-7.383c0.382-0.621 0.977-1.080 1.673-1.294l5.266-1.621v4.337l-4.191 2.586c-0.287 0.179-0.476 0.493-0.476 0.852 0 0.552 0.448 1 1 1 0.194 0 0.376-0.055 0.529-0.151l-0.004 0.002 5.939-3.664c0.008-0.005 0.011-0.007 0.015-0.010l-0.003 0.002c0.425-0.27 0.965-0.211 1.32 0.145 0.432 0.432 0.422 1.1-0.021 1.52 0 0 0 0.001 0 0.001l-8.247 7.641c-0.004 0.003-0.006 0.004-0.008 0.006l0.002-0.002c-0.804 0.756-1.865 1.177-2.969 1.177h-5.22c-0.004 0-0.009 0-0.014 0-0.552 0-1 0.448-1 1s0.448 1 1 1c0.005 0 0.010 0 0.015 0h5.219c1.61 0 3.16-0.614 4.333-1.715l0.003-0.001 2.777-2.573v2.622c0 0.909 0.758 1.667 1.667 1.667h10.667c0.909 0 1.667-0.758 1.667-1.667v-20.667c0-0.909-0.758-1.667-1.667-1.667h-10.667zM19.333 6h6c0 1.105 0.895 2 2 2v16c-1.105 0-2 0.895-2 2h-6c0-1.105-0.895-2-2-2v-2.142l3.201-2.965c0.536 0.282 1.15 0.44 1.799 0.44 1.93 0 3.625-1.437 3.625-3.333s-1.695-3.333-3.625-3.333c-0.95 0-1.829 0.336-2.488 0.91-0.258-0.102-0.525-0.178-0.799-0.208-0.58-0.064-1.173 0.048-1.712 0.32v-5.689c1.105 0 2-0.895 2-2zM22.333 8c-0.736 0-1.333 0.597-1.333 1.333s0.597 1.333 1.333 1.333v0c0.736 0 1.333-0.597 1.333-1.333s-0.597-1.333-1.333-1.333v0zM22.333 14.667c0.97 0 1.625 0.653 1.625 1.333s-0.655 1.333-1.625 1.333c-0.248 0-0.478-0.047-0.684-0.126 0.202-0.756 0.111-1.571-0.271-2.271 0.264-0.161 0.586-0.27 0.954-0.27zM22.333 21.333c-0.736 0-1.333 0.597-1.333 1.333s0.597 1.333 1.333 1.333v0c0.736 0 1.333-0.597 1.333-1.333s-0.597-1.333-1.333-1.333v0z">
            </path>
        </symbol>
        <symbol id="icon-search-outline" viewBox="0 0 32 32">
            <path
                  d="M13.667 4c-5.327 0-9.667 4.34-9.667 9.667s4.34 9.667 9.667 9.667c2.304 0 4.422-0.814 6.086-2.167l6.54 6.54c0.182 0.19 0.438 0.307 0.721 0.307 0.552 0 1-0.448 1-1 0-0.283-0.118-0.539-0.307-0.721l-0-0-6.54-6.54c1.353-1.663 2.167-3.782 2.167-6.086 0-5.327-4.34-9.667-9.667-9.667zM13.667 6c4.246 0 7.667 3.421 7.667 7.667 0 2.068-0.816 3.937-2.139 5.314-0.082 0.061-0.153 0.131-0.212 0.211l-0.002 0.003c-1.377 1.323-3.245 2.139-5.314 2.139-4.246 0-7.667-3.421-7.667-7.667s3.421-7.667 7.667-7.667z">
            </path>
        </symbol>
        <symbol id="icon-success-outline" viewBox="0 0 32 32">
            <path
                  d="M16 2.667c-7.352 0-13.333 5.981-13.333 13.333s5.981 13.333 13.333 13.333c7.352 0 13.333-5.981 13.333-13.333s-5.981-13.333-13.333-13.333zM16 4.667c6.271 0 11.333 5.062 11.333 11.333s-5.062 11.333-11.333 11.333c-6.271 0-11.333-5.062-11.333-11.333s5.062-11.333 11.333-11.333zM20.98 11.991c-0.27 0.008-0.512 0.122-0.687 0.302l-5.96 5.96-2.626-2.626c-0.182-0.19-0.438-0.307-0.721-0.307-0.552 0-1 0.448-1 1 0 0.283 0.118 0.539 0.307 0.721l0 0 3.333 3.333c0.181 0.181 0.431 0.293 0.707 0.293s0.526-0.112 0.707-0.293l6.667-6.667c0.187-0.182 0.302-0.436 0.302-0.716 0-0.552-0.448-1-1-1-0.010 0-0.020 0-0.030 0l0.001-0z">
            </path>
        </symbol>
        <symbol id="icon-surplus-outline" viewBox="0 0 32 32">
            <path
                  d="M23.647 3.324c-0.039 0.001-0.076 0.005-0.112 0.010l0.005-0.001h-3.207c-0.004-0-0.009-0-0.014-0-0.552 0-1 0.448-1 1s0.448 1 1 1c0.005 0 0.010-0 0.015-0h0.919l-3.586 3.586-3.293-3.293c-0.181-0.181-0.431-0.293-0.707-0.293s-0.526 0.112-0.707 0.293l-4 4c-0.19 0.182-0.307 0.438-0.307 0.721 0 0.552 0.448 1 1 1 0.283 0 0.539-0.118 0.721-0.307l0-0 3.293-3.293 3.293 3.293c0.181 0.181 0.431 0.293 0.707 0.293s0.526-0.112 0.707-0.293l4.293-4.293v0.919c-0 0.004-0 0.009-0 0.014 0 0.552 0.448 1 1 1s1-0.448 1-1c0-0.005-0-0.010-0-0.015v0.001-3.217c0.005-0.038 0.008-0.081 0.008-0.125 0-0.552-0.448-1-1-1-0.010 0-0.019 0-0.029 0l0.001-0zM5.667 12.667c-1.277 0-2.333 1.057-2.333 2.333v11.333c0 1.277 1.057 2.333 2.333 2.333h20.667c1.277 0 2.333-1.057 2.333-2.333v-11.333c0-1.277-1.057-2.333-2.333-2.333h-20.667zM7.333 14.667h17.333c0 1.107 0.893 2 2 2v8c-1.107 0-2 0.893-2 2h-17.333c0-1.107-0.893-2-2-2v-8c1.107 0 2-0.893 2-2zM16 16c-1.306 0-2.403 0.656-3.059 1.557s-0.941 2.011-0.941 3.109c0 1.099 0.286 2.208 0.941 3.109s1.753 1.557 3.059 1.557c1.306 0 2.403-0.656 3.059-1.557s0.941-2.011 0.941-3.109c0-1.099-0.286-2.208-0.941-3.109s-1.753-1.557-3.059-1.557zM16 18c0.694 0 1.097 0.261 1.441 0.734s0.559 1.197 0.559 1.932c0 0.735-0.214 1.459-0.559 1.932s-0.747 0.734-1.441 0.734c-0.694 0-1.097-0.261-1.441-0.734s-0.559-1.197-0.559-1.932c0-0.735 0.214-1.459 0.559-1.932s0.747-0.734 1.441-0.734zM8 19.333c-0.736 0-1.333 0.597-1.333 1.333s0.597 1.333 1.333 1.333v0c0.736 0 1.333-0.597 1.333-1.333s-0.597-1.333-1.333-1.333v0zM24 19.333c-0.736 0-1.333 0.597-1.333 1.333s0.597 1.333 1.333 1.333v0c0.736 0 1.333-0.597 1.333-1.333s-0.597-1.333-1.333-1.333v0z">
            </path>
        </symbol>
        <symbol id="icon-user-info-outline" viewBox="0 0 32 32">
            <path
                  d="M8.333 2.667c-1.645 0-3 1.355-3 3v20.667c0 1.645 1.355 3 3 3h15.333c1.645 0 3-1.355 3-3v-20.667c0-1.645-1.355-3-3-3h-15.333zM8.333 4.667h15.333c0.564 0 1 0.436 1 1v20.667c0 0.564-0.436 1-1 1h-15.333c-0.564 0-1-0.436-1-1v-20.667c0-0.564 0.436-1 1-1zM16 6.667c-1.289 0-2.333 1.045-2.333 2.333s1.045 2.333 2.333 2.333v0c1.289 0 2.333-1.045 2.333-2.333s-1.045-2.333-2.333-2.333v0zM13 12.667c-0.552 0-1 0.448-1 1v0.667c0 1.289 1.791 2.333 4 2.333s4-1.045 4-2.333v-0.667c0-0.552-0.448-1-1-1h-6zM11 18.667c-0.004-0-0.009-0-0.014-0-0.552 0-1 0.448-1 1s0.448 1 1 1c0.005 0 0.010-0 0.015-0h9.999c0.004 0 0.009 0 0.014 0 0.552 0 1-0.448 1-1s-0.448-1-1-1c-0.005 0-0.010 0-0.015 0h-9.999zM11 22.667c-0.004-0-0.009-0-0.014-0-0.552 0-1 0.448-1 1s0.448 1 1 1c0.005 0 0.010-0 0.015-0h7.333c0.004 0 0.009 0 0.014 0 0.552 0 1-0.448 1-1s-0.448-1-1-1c-0.005 0-0.010 0-0.015 0h-7.333z">
            </path>
        </symbol>
        <symbol id="icon-user-outline" viewBox="0 0 32 32">
            <path
                  d="M16 2.667c-3.67 0-6.667 2.997-6.667 6.667s2.997 6.667 6.667 6.667c3.67 0 6.667-2.997 6.667-6.667s-2.997-6.667-6.667-6.667zM16 4.667c2.589 0 4.667 2.077 4.667 4.667s-2.078 4.667-4.667 4.667c-2.589 0-4.667-2.078-4.667-4.667s2.078-4.667 4.667-4.667zM8.333 18.667c-1.645 0-3 1.355-3 3v0.799c0 1.961 1.243 3.719 3.139 4.928s4.491 1.939 7.527 1.939c3.037 0 5.631-0.73 7.527-1.939s3.139-2.968 3.139-4.928v-0.799c0-1.645-1.355-3-3-3h-15.333zM8.333 20.667h15.333c0.564 0 1 0.436 1 1v0.799c0 1.11-0.715 2.286-2.215 3.242s-3.739 1.625-6.452 1.625c-2.713 0-4.952-0.669-6.452-1.625s-2.215-2.132-2.215-3.242v-0.799c0-0.564 0.436-1 1-1z">
            </path>
        </symbol>
        <symbol id="icon-wallet-outline" viewBox="0 0 32 32">
            <path
                  d="M7 4c-1.57 0-2.862 1.238-2.978 2.781-0.014 0.063-0.022 0.135-0.022 0.209 0 0.003 0 0.007 0 0.010v-0 18c0 1.645 1.355 3 3 3h18c1.645 0 3-1.355 3-3v-14c0-1.645-1.355-3-3-3h-18c-0.564 0-1-0.436-1-1s0.436-1 1-1h16.667c0.004 0 0.009 0 0.014 0 0.552 0 1-0.448 1-1s-0.448-1-1-1c-0.005 0-0.010 0-0.015 0h-16.666zM6 10h19c0.564 0 1 0.436 1 1v14c0 0.564-0.436 1-1 1h-18c-0.564 0-1-0.436-1-1v-15zM22.333 16c-0.92 0-1.667 0.746-1.667 1.667s0.746 1.667 1.667 1.667v0c0.92 0 1.667-0.746 1.667-1.667s-0.746-1.667-1.667-1.667v0z">
            </path>
        </symbol>
        <symbol id="icon-warn-outline" viewBox="0 0 32 32">
            <path
                  d="M16 3.369c-1.036 0-2.073 0.505-2.633 1.517l-10.32 18.645c-1.088 1.967 0.385 4.47 2.633 4.47h20.642c2.248 0 3.721-2.503 2.633-4.47l-10.322-18.645c-0.56-1.012-1.596-1.517-2.633-1.517zM16 5.299c0.339 0 0.678 0.184 0.883 0.555l10.322 18.645c0.396 0.715-0.068 1.501-0.883 1.501h-20.642c-0.815 0-1.278-0.787-0.883-1.501l10.32-18.645c0.205-0.37 0.544-0.555 0.883-0.555zM15.984 10.652c-0.546 0.009-0.984 0.453-0.984 1 0 0.005 0 0.010 0 0.015v-0.001 6.667c-0 0.004-0 0.009-0 0.014 0 0.552 0.448 1 1 1s1-0.448 1-1c0-0.005-0-0.010-0-0.015v0.001-6.667c0-0.004 0-0.009 0-0.014 0-0.552-0.448-1-1-1-0.005 0-0.011 0-0.016 0h0.001zM16 21.333c-0.736 0-1.333 0.597-1.333 1.333s0.597 1.333 1.333 1.333v0c0.736 0 1.333-0.597 1.333-1.333s-0.597-1.333-1.333-1.333v0z">
            </path>
        </symbol>
        <symbol id="icon-camera-bold" viewBox="0 0 32 32">
            <path
                  d="M13.648 3.333c-1.063 0-2.056 0.57-2.591 1.488l-1.465 2.512h-2.592c-2.389 0-4.333 1.944-4.333 4.333v12.667c0 2.389 1.944 4.333 4.333 4.333h18c2.389 0 4.333-1.944 4.333-4.333v-12.667c0-2.389-1.944-4.333-4.333-4.333h-2.592l-1.465-2.512c-0.535-0.918-1.528-1.488-2.591-1.488h-4.703zM16 11.333c3.308 0 6 2.691 6 6s-2.692 6-6 6c-3.308 0-6-2.691-6-6s2.692-6 6-6zM16 13.333c-2.209 0-4 1.791-4 4s1.791 4 4 4v0c2.209 0 4-1.791 4-4s-1.791-4-4-4v0z">
            </path>
        </symbol>
        <symbol id="icon-cancel-bold" viewBox="0 0 32 32">
            <path
                  d="M25.988 4.647c-0.366 0.009-0.695 0.164-0.931 0.41l-9.058 9.058-9.057-9.057c-0.243-0.249-0.581-0.404-0.956-0.404-0 0-0.001 0-0.001 0h0c-0.736 0.001-1.332 0.598-1.332 1.333 0 0.375 0.154 0.713 0.403 0.955l9.058 9.058-9.057 9.057c-0.253 0.243-0.41 0.584-0.41 0.962 0 0.736 0.597 1.333 1.333 1.333 0.378 0 0.719-0.157 0.961-0.41l0-0 9.057-9.057 9.057 9.057c0.243 0.253 0.584 0.41 0.962 0.41 0.736 0 1.333-0.597 1.333-1.333 0-0.378-0.157-0.719-0.41-0.961l-0-0-9.057-9.057 9.057-9.057c0.253-0.243 0.411-0.584 0.411-0.962 0-0.736-0.597-1.333-1.333-1.333-0.011 0-0.022 0-0.033 0l0.002-0z">
            </path>
        </symbol>
        <symbol id="icon-contribution-bold" viewBox="0 0 32 32">
            <path
                  d="M12.333 2.667c-2.761 0-5 2.239-5 5 0 0.52 0.079 1.021 0.227 1.492 2.301-1.557 5.24-2.492 8.44-2.492 0.411 0 0.825 0.021 1.241 0.055-0.442-2.309-2.47-4.055-4.908-4.055zM23.885 5.339c-0.080-0.008-0.161-0.006-0.244 0.005-0.809 0.114-3.42 0.653-4.895 2.921 0 0-0.001 0-0.001 0-0.883-0.167-1.799-0.264-2.746-0.264-4.984 0-9.257 2.449-11.070 5.934-0.543-0.168-0.93-0.661-0.93-1.267 0-1.133 0.78-1.439 0.78-1.439 0.338-0.165 0.566-0.506 0.566-0.901 0-0.552-0.448-1-1-1-0.003 0-0.005 0-0.008 0h0c-0.165 0.001-0.321 0.043-0.457 0.115l0.005-0.003c0 0-1.887 1.028-1.887 3.228 0 1.441 0.939 2.668 2.229 3.129-0.148 0.606-0.229 1.23-0.229 1.871 0 2.598 1.279 4.951 3.349 6.688l-0.514 1.383c-0.514 1.381 0.19 2.915 1.57 3.428 0.307 0.113 0.62 0.168 0.928 0.168 1.083 0 2.101-0.664 2.5-1.738l0.293-0.786c1.217 0.335 2.516 0.525 3.874 0.525s2.658-0.187 3.875-0.522l0.292 0.784c0.399 1.074 1.417 1.738 2.5 1.738 0.309 0 0.622-0.055 0.928-0.168 1.381-0.513 2.084-2.048 1.57-3.428l-0.513-1.381c1.034-0.869 1.871-1.89 2.448-3.022h1.566c0.737 0 1.333-0.597 1.333-1.333v-3.333c0-0.737-0.597-1.333-1.333-1.333h-1.034c-0.6-1.945-1.924-3.656-3.738-4.935l0.862-3.846c0.071-0.32-0.018-0.654-0.241-0.896-0.167-0.181-0.39-0.293-0.63-0.318zM22.667 15.333c0.737 0 1.333 0.597 1.333 1.333s-0.597 1.333-1.333 1.333c-0.737 0-1.333-0.597-1.333-1.333s0.597-1.333 1.333-1.333z">
            </path>
        </symbol>
        <symbol id="icon-copy-bold" viewBox="0 0 32 32">
            <path
                  d="M12.333 3.333c-2.022 0-3.667 1.645-3.667 3.667v14.667c0 2.022 1.645 3.667 3.667 3.667h10.667c2.022 0 3.667-1.645 3.667-3.667v-14.667c0-2.022-1.645-3.667-3.667-3.667h-10.667zM7.333 6.667l-0.813 0.542c-0.742 0.495-1.188 1.327-1.188 2.219v12.906c0 3.498 2.835 6.333 6.333 6.333h8.906c0.892 0 1.725-0.445 2.219-1.188l0.542-0.813h-11.667c-2.393 0-4.333-1.94-4.333-4.333v-15.667z">
            </path>
        </symbol>
        <symbol id="icon-dashboard-bold" viewBox="0 0 32 32">
            <path
                  d="M12.333 12h-5.333c-1.654 0-3-1.346-3-3v-2c0-1.654 1.346-3 3-3h5.333c1.654 0 3 1.346 3 3v2c0 1.654-1.346 3-3 3zM12.333 28h-5.333c-1.654 0-3-1.346-3-3v-8.667c0-1.654 1.346-3 3-3h5.333c1.654 0 3 1.346 3 3v8.667c0 1.654-1.346 3-3 3zM25 28h-5.333c-1.654 0-3-1.346-3-3v-2c0-1.654 1.346-3 3-3h5.333c1.654 0 3 1.346 3 3v2c0 1.654-1.346 3-3 3zM25 18.667h-5.333c-1.654 0-3-1.346-3-3v-8.667c0-1.654 1.346-3 3-3h5.333c1.654 0 3 1.346 3 3v8.667c0 1.654-1.346 3-3 3z">
            </path>
        </symbol>
        <symbol id="icon-error-bold" viewBox="0 0 32 32">
            <path
                  d="M16 2.667c-7.364 0-13.333 5.969-13.333 13.333s5.969 13.333 13.333 13.333c7.364 0 13.333-5.969 13.333-13.333s-5.969-13.333-13.333-13.333zM21.041 19.626c0.391 0.391 0.391 1.023 0 1.414-0.195 0.196-0.451 0.293-0.707 0.293s-0.512-0.097-0.707-0.293l-3.626-3.627-3.626 3.626c-0.195 0.196-0.451 0.293-0.707 0.293s-0.512-0.097-0.707-0.293c-0.391-0.391-0.391-1.023 0-1.414l3.627-3.627-3.626-3.626c-0.391-0.391-0.391-1.023 0-1.414s1.023-0.391 1.414 0l3.626 3.626 3.626-3.626c0.391-0.391 1.023-0.391 1.414 0s0.391 1.023 0 1.414l-3.626 3.626 3.627 3.626z">
            </path>
        </symbol>
        <symbol id="icon-gp-bold" viewBox="0 0 32 32">
            <path
                  d="M16.033 1.333c-0.009-0-0.020-0-0.031-0-0.258 0-0.493 0.098-0.67 0.258l0.001-0.001c0 0-5.005 4.41-10.999 4.41-0.552 0-1 0.448-1 1v0 8.173c0 4.452 2.060 11.778 12.279 16.082 0.115 0.050 0.248 0.078 0.388 0.078s0.273-0.029 0.395-0.081l-0.006 0.003c10.219-4.304 12.279-11.63 12.279-16.082v-8.173c-0-0.552-0.448-1-1-1v0c-5.993 0-10.999-4.41-10.999-4.41-0.168-0.152-0.39-0.248-0.634-0.256l-0.002-0zM16 8.667c1.838 0 3.333 1.495 3.333 3.333s-1.495 3.333-3.333 3.333c-1.838 0-3.333-1.495-3.333-3.333s1.495-3.333 3.333-3.333zM11.667 18h8.667c0.919 0 1.667 0.748 1.667 1.667v0.667c0 0.297-0.034 0.589-0.1 0.867-0.043 0.181-0.138 0.346-0.27 0.477-1.514 1.498-3.513 2.323-5.63 2.323s-4.117-0.824-5.63-2.322c-0.132-0.131-0.225-0.296-0.268-0.477-0.067-0.279-0.102-0.571-0.102-0.869v-0.667c0-0.919 0.748-1.667 1.667-1.667z">
            </path>
        </symbol>
        <symbol id="icon-guarantee-bold" viewBox="0 0 32 32">
            <path
                  d="M9.333 2.667c-1.473 0-2.667 1.194-2.667 2.667s1.194 2.667 2.667 2.667v0c1.473 0 2.667-1.194 2.667-2.667s-1.194-2.667-2.667-2.667v0zM22.667 2.667c-1.473 0-2.667 1.194-2.667 2.667s1.194 2.667 2.667 2.667v0c1.473 0 2.667-1.194 2.667-2.667s-1.194-2.667-2.667-2.667v0zM8 9.333c-1.825 0-3.333 1.508-3.333 3.333v8c-0 0.005-0 0.012-0 0.018 0 0.736 0.597 1.333 1.333 1.333v0 5.982c-0 0.006-0 0.012-0 0.019 0 0.736 0.597 1.333 1.333 1.333s1.333-0.597 1.333-1.333c0-0.007-0-0.013-0-0.020v0.001-6.667h1.333v6.667c-0 0.006-0 0.012-0 0.019 0 0.736 0.597 1.333 1.333 1.333s1.333-0.597 1.333-1.333c0-0.007-0-0.013-0-0.020v0.001-12.708l2.122 4.6c0.007 0.015 0.011 0.023 0.015 0.031l-0.004-0.007c0.012 0.024 0.021 0.040 0.030 0.056l-0.003-0.007c0.015 0.029 0.027 0.050 0.040 0.071l-0.003-0.006c0.017 0.027 0.032 0.048 0.047 0.069l-0.003-0.004c0.013 0.018 0.023 0.032 0.034 0.046l-0.002-0.003c0.013 0.017 0.024 0.031 0.036 0.045l-0.002-0.002c0.020 0.025 0.040 0.047 0.059 0.069l-0.001-0.001c0.009 0.010 0.019 0.019 0.028 0.028l0 0c0.021 0.021 0.043 0.042 0.065 0.061l0.001 0.001c0.011 0.009 0.024 0.020 0.037 0.031l0.003 0.002c0.015 0.012 0.033 0.026 0.051 0.039l0.004 0.003c0.020 0.014 0.044 0.031 0.069 0.046l0.006 0.003c0.006 0.004 0.019 0.012 0.031 0.019l0.007 0.003c0.015 0.009 0.038 0.021 0.060 0.033l0.008 0.003c0.010 0.006 0.027 0.014 0.045 0.023l0.008 0.003c0.017 0.008 0.042 0.018 0.068 0.028l0.009 0.003c0.004 0.002 0.017 0.007 0.030 0.012l0.009 0.003c0.021 0.007 0.051 0.016 0.082 0.024l0.009 0.002c0.004 0.002 0.018 0.006 0.032 0.010l0.009 0.002c0.019 0.004 0.047 0.009 0.075 0.013l0.007 0.001c0.009 0.002 0.025 0.005 0.042 0.007l0.007 0.001c0.016 0.002 0.039 0.005 0.062 0.006l0.004 0c0.024 0.002 0.053 0.003 0.082 0.004h0.001c0.007 0 0.014 0 0.022 0s0.016-0 0.023-0l-0.001 0c0.030-0 0.058-0.002 0.087-0.004l-0.005 0c0.022-0.002 0.038-0.004 0.055-0.006l-0.007 0.001c0.038-0.005 0.068-0.010 0.098-0.016l-0.009 0.001c0.023-0.004 0.038-0.008 0.052-0.011l-0.009 0.002c0.035-0.008 0.062-0.014 0.088-0.022l-0.009 0.002c0.032-0.009 0.054-0.016 0.076-0.024l-0.009 0.003c0.027-0.009 0.044-0.015 0.061-0.021l-0.009 0.003c0.034-0.013 0.058-0.024 0.082-0.036l-0.008 0.003c0.027-0.012 0.046-0.021 0.065-0.031l-0.007 0.003c0.022-0.013 0.038-0.022 0.054-0.032l-0.006 0.003c0.027-0.015 0.046-0.026 0.065-0.038l-0.006 0.003c0.024-0.017 0.044-0.031 0.063-0.045l-0.003 0.002c0.027-0.019 0.050-0.036 0.071-0.054l-0.002 0.002c0.004-0.004 0.008-0.008 0.012-0.012l0-0c0.031-0.026 0.059-0.052 0.086-0.078l-0 0c0.004-0.005 0.010-0.011 0.015-0.018l0.002-0.002c0.019-0.020 0.039-0.041 0.057-0.063l0.002-0.002c0.009-0.012 0.020-0.026 0.031-0.041l0.003-0.004c0.013-0.017 0.028-0.038 0.043-0.059l0.003-0.005c0.006-0.009 0.015-0.023 0.024-0.037l0.003-0.006c0.015-0.023 0.032-0.052 0.047-0.081l0.003-0.007c0.005-0.009 0.013-0.025 0.021-0.041l0.003-0.008 0.013-0.027c-0.002 0.008-0.001 0.006-0.001 0.004l0.002-0.009 2.108-4.568v12.708c-0 0.006-0 0.012-0 0.019 0 0.736 0.597 1.333 1.333 1.333s1.333-0.597 1.333-1.333c0-0.007-0-0.013-0-0.020v0.001-6.667h1.333v6.667c-0 0.006-0 0.012-0 0.019 0 0.736 0.597 1.333 1.333 1.333s1.333-0.597 1.333-1.333c0-0.007-0-0.013-0-0.020v0.001-5.982c0.736 0 1.333-0.597 1.333-1.333 0-0.006-0-0.013-0-0.019v0.001-8c0-1.825-1.508-3.333-3.333-3.333h-2.294c-1.557 0-2.979 0.91-3.631 2.324l-2.074 4.494-2.074-4.494c-0.653-1.414-2.075-2.324-3.631-2.324h-2.294z">
            </path>
        </symbol>
        <symbol id="icon-info-bold" viewBox="0 0 32 32">
            <path
                  d="M16 2.667c-7.352 0-13.333 5.981-13.333 13.333s5.981 13.333 13.333 13.333 13.333-5.981 13.333-13.333-5.981-13.333-13.333-13.333zM17 22.333c0 0.552-0.448 1-1 1s-1-0.448-1-1v-7.333c0-0.552 0.448-1 1-1s1 0.448 1 1v7.333zM16 12c-0.737 0-1.333-0.597-1.333-1.333s0.597-1.333 1.333-1.333 1.333 0.597 1.333 1.333c0 0.737-0.597 1.333-1.333 1.333z">
            </path>
        </symbol>
        <symbol id="icon-investment-bold" viewBox="0 0 32 32">
            <path
                  d="M25.667 2.667c-1.657 0-3 1.343-3 3v20.667c0 1.657 1.343 3 3 3s3-1.343 3-3v-20.667c0-1.657-1.343-3-3-3zM11.667 3.333c-0.004-0-0.009-0-0.014-0-0.552 0-1 0.448-1 1s0.448 1 1 1c0.005 0 0.010-0 0.015-0h2.119l-10.784 9.586c-0.218 0.185-0.355 0.458-0.355 0.764 0 0.552 0.448 1 1 1 0.264 0 0.504-0.102 0.683-0.27l-0.001 0.001 11.003-9.78v2.366c-0 0.004-0 0.009-0 0.014 0 0.552 0.448 1 1 1s1-0.448 1-1c0-0.005-0-0.010-0-0.015v0.001-4.667c-0-0.552-0.448-1-1-1h-4.667zM16 12.667c-1.657 0-3 1.343-3 3v10.667c0 1.657 1.343 3 3 3s3-1.343 3-3v-10.667c0-1.657-1.343-3-3-3zM6.333 18.667c-1.657 0-3 1.343-3 3v4.667c0 1.657 1.343 3 3 3s3-1.343 3-3v-4.667c0-1.657-1.343-3-3-3z">
            </path>
        </symbol>
        <symbol id="icon-loan-bold" viewBox="0 0 32 32">
            <path
                  d="M9.651 3.319c-0.546 0.009-0.984 0.453-0.984 1 0 0.005 0 0.010 0 0.015v-0.001 8c0 1.277 1.057 2.333 2.333 2.333h10c1.277 0 2.333-1.057 2.333-2.333v-8c0-0.004 0-0.009 0-0.014 0-0.552-0.448-1-1-1s-1 0.448-1 1c0 0.005 0 0.010 0 0.015v-0.001 6.333c-1.107 0-2 0.893-2 2h-6.667c0-1.107-0.893-2-2-2v-6.333c0-0.004 0-0.009 0-0.014 0-0.552-0.448-1-1-1-0.005 0-0.011 0-0.016 0h0.001zM19 3.333l-6 0.005c-0.046 0.002-0.093 0.003-0.139 0.012-0.543 0.101-0.902 0.622-0.801 1.165 0.303 1.633 1.96 2.818 3.94 2.818s3.637-1.185 3.94-2.818c0.101-0.543-0.258-1.065-0.801-1.165-0.047-0.009-0.139-0.017-0.139-0.017zM16 8.667c-0.736 0-1.333 0.597-1.333 1.333s0.597 1.333 1.333 1.333v0c0.736 0 1.333-0.597 1.333-1.333s-0.597-1.333-1.333-1.333v0zM28.911 14.671c-0.684 0-1.435 0.449-3.031 1.277-1.322 0.687-2.544 1.339-3.32 1.815 0.067 0.292 0.107 0.596 0.107 0.908 0 2.206-1.795 4-4 4h-5c-0.552 0-1-0.447-1-1s0.448-1 1-1h5c1.103 0 2-0.897 2-2 0-0.598-0.269-1.13-0.686-1.497-0.474-0.313-1.037-0.503-1.647-0.503h-3.333c-0.019 0-0.038-0.005-0.057-0.006-1.757-0.027-2.6-0.209-3.342-0.372-0.675-0.149-1.313-0.288-2.383-0.288-4.888 0-7.678 6-7.794 6.255-0.151 0.331-0.11 0.716 0.105 1.008l4.667 6.329c0.19 0.258 0.489 0.404 0.802 0.404 0.063 0 0.127-0.006 0.19-0.018 0.377-0.072 0.682-0.357 0.78-0.728 0.053-0.197 0.563-1.917 2.366-1.917 1.301 0 2.647 0.167 3.949 0.329 1.326 0.166 2.698 0.337 4.051 0.337 1.842 0 3.168-1.413 7-5.333 4.868-4.981 5.333-5.416 5.333-6.404 0-0.855-0.75-1.596-1.755-1.596z">
            </path>
        </symbol>
        <symbol id="icon-logout-bold" viewBox="0 0 32 32">
            <path
                  d="M8.333 3.333c-2.022 0-3.667 1.645-3.667 3.667v18c0 2.022 1.645 3.667 3.667 3.667h8c2.022 0 3.667-1.645 3.667-3.667v-8h-9.667c-0.553 0-1-0.447-1-1s0.447-1 1-1h9.667v-8c0-2.022-1.645-3.667-3.667-3.667h-8zM20 15v2h5.253l-2.96 2.96c-0.19 0.182-0.307 0.438-0.307 0.721 0 0.552 0.448 1 1 1 0.283 0 0.539-0.118 0.721-0.307l0-0 4.667-4.667c0.181-0.181 0.293-0.431 0.293-0.707s-0.112-0.526-0.293-0.707l-4.667-4.667c-0.182-0.187-0.436-0.303-0.717-0.303v0c-0.552 0-1 0.448-1 1 0 0.281 0.116 0.535 0.303 0.717l2.96 2.96h-5.253z">
            </path>
        </symbol>
        <symbol id="icon-notification-bold" viewBox="0 0 32 32">
            <path
                  d="M25.665 24h-19.331c-0.803 0-1.54-0.405-1.97-1.083s-0.483-1.517-0.141-2.243l1.777-3.575v-4.178c0-5.493 4.181-9.991 9.518-10.243v0c2.767-0.125 5.387 0.847 7.383 2.752 1.999 1.906 3.099 4.476 3.099 7.237v4.432l1.767 3.555c0.351 0.746 0.299 1.585-0.131 2.263s-1.167 1.083-1.97 1.083zM15.565 3.677v0zM12.060 25.333c0.319 1.889 1.961 3.333 3.94 3.333s3.621-1.445 3.94-3.333h-7.88z">
            </path>
        </symbol>
        <symbol id="icon-pay-bold" viewBox="0 0 32 32">
            <path
                  d="M3.887 15.744c8.379-3.686 19.221-8.18 20.718-8.802 3.926-1.628 5.131-1.316 4.53 2.289-0.431 2.591-1.676 11.171-2.668 16.511-0.589 3.167-1.909 3.542-3.986 2.172-0.999-0.659-6.039-3.993-7.133-4.775-0.999-0.713-2.376-1.571-0.649-3.261 0.615-0.602 4.644-4.449 7.783-7.444 0.411-0.393-0.105-1.039-0.58-0.724-4.231 2.806-10.098 6.701-10.845 7.208-1.128 0.766-2.211 1.117-4.156 0.559-1.469-0.422-2.905-0.925-3.463-1.117-2.151-0.739-1.641-1.695 0.449-2.615z">
            </path>
        </symbol>
        <symbol id="icon-repay-loan-bold" viewBox="0 0 32 32">
            <path
                  d="M17 4c-0.92 0-1.667 0.747-1.667 1.667v10.16l2-1.28v-6.547c1.105 0 2-0.895 2-2h6c0 1.105 0.895 2 2 2v16c-1.105 0-2 0.895-2 2h-6c0-0.947-0.654-1.733-1.534-1.947l-0.466 0.5-1.906 2.040c0 0 0 0.001 0 0.001l-0.060 0.065c0.153 0.767 0.826 1.34 1.633 1.34h10.667c0.92 0 1.667-0.747 1.667-1.667v-20.667c0-0.92-0.747-1.667-1.667-1.667h-10.667zM22.333 8c-0.736 0-1.333 0.597-1.333 1.333s0.597 1.333 1.333 1.333v0c0.736 0 1.333-0.597 1.333-1.333s-0.597-1.333-1.333-1.333v0zM14 9.921l-4.44 1.366c-0.793 0.247-1.5 0.74-2.006 1.406l-5.28 6.948c-0.18 0.233-0.273 0.519-0.273 0.806v6.22c0 0.733 0.6 1.333 1.333 1.333l6.654-0.006c1.48 0 2.887-0.614 3.893-1.694l6.859-7.346c0.393-0.413 0.587-0.946 0.587-1.473 0-0.58-0.234-1.161-0.701-1.581-0.7-0.64-1.747-0.74-2.553-0.24l-3.372 2.154v0.006l-2.027 1.353c-0.093 0.060-0.199 0.106-0.299 0.126l-0.040 0.027 0.020-0.020c-0.073 0.020-0.147 0.026-0.22 0.026-0.327 0-0.653-0.16-0.84-0.46-0.3-0.467-0.166-1.087 0.301-1.38l2.406-1.54v-6.033zM22.333 12.74c-1.187 0-2.246 0.5-2.9 1.28 0.78 0.053 1.512 0.367 2.092 0.893 0.72 0.647 1.134 1.588 1.134 2.568 0 0.633-0.167 1.24-0.487 1.773 0.053 0.007 0.107 0.006 0.16 0.006 2.027 0 3.667-1.46 3.667-3.26s-1.64-3.26-3.667-3.26zM22.333 21.333c-0.736 0-1.333 0.597-1.333 1.333s0.597 1.333 1.333 1.333v0c0.736 0 1.333-0.597 1.333-1.333s-0.597-1.333-1.333-1.333v0z">
            </path>
        </symbol>
        <symbol id="icon-success-bold" viewBox="0 0 32 32">
            <path
                  d="M16 2.667c-7.352 0-13.333 5.981-13.333 13.333s5.981 13.333 13.333 13.333 13.333-5.981 13.333-13.333-5.981-13.333-13.333-13.333zM21.707 13.707l-6.667 6.667c-0.195 0.195-0.451 0.293-0.707 0.293s-0.512-0.097-0.707-0.293l-3.333-3.333c-0.391-0.391-0.391-1.023 0-1.414s1.023-0.391 1.414 0l2.626 2.626 5.959-5.959c0.391-0.391 1.023-0.391 1.414 0s0.391 1.023 0.001 1.414z">
            </path>
        </symbol>
        <symbol id="icon-surplus-bold" viewBox="0 0 32 32">
            <path
                  d="M23.647 3.324c-0.039 0.001-0.076 0.005-0.112 0.010l0.005-0.001h-3.207c-0.004-0-0.009-0-0.014-0-0.552 0-1 0.448-1 1s0.448 1 1 1c0.005 0 0.010-0 0.015-0h0.919l-3.586 3.586-3.293-3.293c-0.181-0.181-0.431-0.293-0.707-0.293s-0.526 0.112-0.707 0.293l-4 4c-0.19 0.182-0.307 0.438-0.307 0.721 0 0.552 0.448 1 1 1 0.283 0 0.539-0.118 0.721-0.307l0-0 3.293-3.293 3.293 3.293c0.181 0.181 0.431 0.293 0.707 0.293s0.526-0.112 0.707-0.293l4.293-4.293v0.919c-0 0.004-0 0.009-0 0.014 0 0.552 0.448 1 1 1s1-0.448 1-1c0-0.005-0-0.010-0-0.015v0.001-3.217c0.005-0.038 0.008-0.081 0.008-0.125 0-0.552-0.448-1-1-1-0.010 0-0.019 0-0.029 0l0.001-0zM5.667 12.667c-1.277 0-2.333 1.057-2.333 2.333v11.333c0 1.277 1.057 2.333 2.333 2.333h20.667c1.277 0 2.333-1.057 2.333-2.333v-11.333c0-1.277-1.057-2.333-2.333-2.333h-20.667zM7.333 14.667h17.333c0 1.107 0.893 2 2 2v8c-1.107 0-2 0.893-2 2h-17.333c0-1.107-0.893-2-2-2v-8c1.107 0 2-0.893 2-2zM16 16c-2.206 0-4 2.093-4 4.667s1.794 4.667 4 4.667c2.206 0 4-2.093 4-4.667s-1.794-4.667-4-4.667zM8 19.333c-0.736 0-1.333 0.597-1.333 1.333s0.597 1.333 1.333 1.333v0c0.736 0 1.333-0.597 1.333-1.333s-0.597-1.333-1.333-1.333v0zM24 19.333c-0.736 0-1.333 0.597-1.333 1.333s0.597 1.333 1.333 1.333v0c0.736 0 1.333-0.597 1.333-1.333s-0.597-1.333-1.333-1.333v0z">
            </path>
        </symbol>
        <symbol id="icon-user-bold" viewBox="0 0 32 32">
            <path
                  d="M16 2.667c-3.67 0-6.667 2.997-6.667 6.667s2.997 6.667 6.667 6.667c3.67 0 6.667-2.997 6.667-6.667s-2.997-6.667-6.667-6.667zM8.333 18.667c-1.645 0-3 1.355-3 3v0.799c0 1.961 1.243 3.719 3.139 4.928s4.491 1.939 7.527 1.939c3.037 0 5.631-0.73 7.527-1.939s3.139-2.968 3.139-4.928v-0.799c0-1.645-1.355-3-3-3h-15.333z">
            </path>
        </symbol>
        <symbol id="icon-user-info-bold" viewBox="0 0 32 32">
            <path
                  d="M23.667 2.667h-15.333c-1.657 0-3 1.343-3 3v20.667c0 1.657 1.343 3 3 3h15.333c1.657 0 3-1.343 3-3v-20.667c0-1.657-1.343-3-3-3zM16 6.667c1.287 0 2.333 1.047 2.333 2.333s-1.047 2.333-2.333 2.333-2.333-1.047-2.333-2.333 1.047-2.333 2.333-2.333zM12 13.667c0-0.552 0.448-1 1-1h6c0.552 0 1 0.448 1 1v0.667c0 1.289-1.791 2.333-4 2.333s-4-1.045-4-2.333v-0.667zM18.333 24.667h-7.333c-0.553 0-1-0.448-1-1s0.447-1 1-1h7.333c0.553 0 1 0.448 1 1s-0.447 1-1 1zM21 20.667h-10c-0.553 0-1-0.448-1-1s0.447-1 1-1h10c0.553 0 1 0.448 1 1s-0.447 1-1 1z">
            </path>
        </symbol>
        <symbol id="icon-wallet-bold" viewBox="0 0 32 32">
            <path
                  d="M7 4c-1.645 0-3 1.355-3 3v18c0 1.657 1.343 3 3 3h18c1.657 0 3-1.343 3-3v-14c0-1.657-1.343-3-3-3h-18c-0.552 0-1-0.448-1-1 0-0.564 0.436-1 1-1h16.667c0.004 0 0.009 0 0.014 0 0.552 0 1-0.448 1-1s-0.448-1-1-1c-0.005 0-0.010 0-0.015 0h-16.666zM22.333 16c0.921 0 1.667 0.746 1.667 1.667s-0.746 1.667-1.667 1.667c-0.921 0-1.667-0.746-1.667-1.667s0.746-1.667 1.667-1.667z">
            </path>
        </symbol>
        <symbol id="icon-warn-bold" viewBox="0 0 32 32">
            <path
                  d="M28.954 23.529l-10.321-18.644c-0.538-0.971-1.522-1.552-2.633-1.552s-2.095 0.581-2.633 1.552l-10.321 18.644c-0.522 0.943-0.507 2.060 0.041 2.989 0.547 0.928 1.516 1.482 2.593 1.482h20.642c1.076 0 2.045-0.554 2.593-1.482s0.562-2.045 0.040-2.989zM15 11.667c0-0.553 0.448-1 1-1s1 0.447 1 1v6.667c0 0.553-0.448 1-1 1s-1-0.447-1-1v-6.667zM16 24c-0.737 0-1.333-0.597-1.333-1.333s0.597-1.333 1.333-1.333 1.333 0.597 1.333 1.333c0 0.737-0.597 1.333-1.333 1.333z">
            </path>
        </symbol>
    </defs>
</svg>